<?xml version="1.0" standalone="no"?>
<!DOCTYPE svg PUBLIC "-//W3C//DTD SVG 20010904//EN"
 "http://www.w3.org/TR/2001/REC-SVG-20010904/DTD/svg10.dtd">
<svg version="1.0" xmlns="http://www.w3.org/2000/svg"
 width="512.000000pt" height="512.000000pt" viewBox="0 0 512.000000 512.000000"
 preserveAspectRatio="xMidYMid meet">
<metadata>
Created by potrace 1.16, written by Peter Selinger 2001-2019
</metadata>
<g transform="translate(0.000000,512.000000) scale(0.100000,-0.100000)"
fill="#000000" stroke="none">
<path d="M2235 5105 c-462 -60 -885 -237 -1255 -523 -117 -91 -316 -287 -413
-407 -276 -342 -459 -746 -537 -1186 -28 -156 -39 -531 -21 -702 43 -399 182
-790 398 -1122 98 -150 184 -257 318 -394 419 -430 948 -690 1550 -760 134
-16 460 -13 605 4 748 93 1416 512 1833 1150 210 321 344 690 392 1075 20 162
20 477 0 640 -92 742 -510 1412 -1140 1826 -329 216 -695 350 -1085 399 -152
18 -501 18 -645 0z m-562 -1303 c148 -65 210 -256 131 -401 -34 -63 -70 -95
-144 -130 -45 -21 -70 -25 -141 -25 -77 0 -93 3 -152 32 -267 132 -197 512
101 550 72 9 146 0 205 -26z m1737 -788 c167 -38 314 -155 396 -316 38 -75 73
-211 84 -326 5 -59 10 -333 10 -609 l0 -503 -284 0 -285 0 -3 528 c-4 511 -5
529 -26 593 -29 88 -67 138 -133 174 -48 26 -64 30 -139 30 -134 0 -214 -47
-287 -172 l-28 -48 -3 -552 -3 -553 -284 0 -285 0 0 865 0 865 285 0 285 0 0
-122 1 -123 21 30 c81 111 197 198 311 235 96 30 240 32 367 4z m-1610 -884
l0 -870 -285 0 -285 0 0 870 0 870 285 0 285 0 0 -870z"/>
</g>
</svg>
