<?xml version="1.0" standalone="no"?>
<!DOCTYPE svg PUBLIC "-//W3C//DTD SVG 20010904//EN"
 "http://www.w3.org/TR/2001/REC-SVG-20010904/DTD/svg10.dtd">
<svg version="1.0" xmlns="http://www.w3.org/2000/svg"
 width="2400.000000pt" height="2400.000000pt" viewBox="0 0 2400.000000 2400.000000"
 preserveAspectRatio="xMidYMid meet">
<metadata>
Created by potrace 1.16, written by Peter Selinger 2001-2019
</metadata>
<g transform="translate(0.000000,2400.000000) scale(0.100000,-0.100000)"
fill="#000000" stroke="none">
<path d="M11465 23469 c-2369 -107 -4657 -953 -6523 -2412 -403 -315 -663
-546 -1063 -946 -324 -325 -473 -487 -708 -769 -1111 -1337 -1900 -2895 -2316
-4571 -164 -662 -264 -1314 -315 -2051 -30 -427 -23 -1174 16 -1645 139 -1710
640 -3325 1492 -4805 390 -678 848 -1311 1394 -1927 178 -200 715 -736 918
-915 753 -665 1523 -1194 2385 -1639 2054 -1059 4389 -1470 6709 -1178 2160
272 4214 1165 5886 2559 371 309 921 839 1215 1170 1084 1223 1855 2557 2358
4085 713 2163 755 4560 121 6760 -474 1646 -1298 3137 -2456 4450 -177 200
-724 748 -921 923 -1443 1279 -3098 2151 -4929 2597 -734 178 -1452 280 -2233
315 -253 11 -767 11 -1030 -1z m7167 -6420 c179 -70 317 -220 362 -395 15 -56
16 -496 16 -4654 0 -4158 -1 -4598 -16 -4654 -46 -178 -194 -336 -372 -398
l-67 -23 -6555 0 -6555 0 -67 23 c-178 62 -326 220 -372 398 -15 56 -16 496
-16 4654 0 4158 1 4598 16 4654 25 97 71 174 154 256 85 86 147 122 252 150
72 19 196 19 6613 17 l6540 -2 67 -26z"/>
<path d="M7111 15687 c15 -12 1119 -976 2453 -2142 1335 -1166 2431 -2120
2435 -2120 8 0 805 695 4109 3583 l804 702 -4914 0 -4913 -1 26 -22z"/>
<path d="M6130 11841 c0 -2639 2 -3181 13 -3174 27 16 3587 3195 3587 3203 0
5 -800 707 -1777 1561 -978 854 -1788 1561 -1800 1572 l-23 20 0 -3182z"/>
<path d="M16110 13490 c-965 -843 -1772 -1549 -1793 -1569 l-37 -36 392 -350
c531 -474 1407 -1254 2383 -2124 l810 -722 3 1580 c1 868 1 2294 0 3167 l-3
1587 -1755 -1533z"/>
<path d="M12870 10659 c-559 -490 -600 -521 -726 -554 -131 -34 -311 -12 -424
52 -58 33 -68 41 -633 536 l-478 418 -99 -88 c-55 -48 -819 -729 -1698 -1513
l-1598 -1425 2397 -3 c1319 -1 3480 -1 4804 0 l2407 3 -1687 1505 c-928 828
-1697 1512 -1708 1521 -21 16 -36 4 -557 -452z"/>
</g>
</svg>
