<?xml version="1.0" standalone="no"?>
<!DOCTYPE svg PUBLIC "-//W3C//DTD SVG 20010904//EN"
 "http://www.w3.org/TR/2001/REC-SVG-20010904/DTD/svg10.dtd">
<svg version="1.0" xmlns="http://www.w3.org/2000/svg"
 width="225.000000pt" height="225.000000pt" viewBox="0 0 225.000000 225.000000"
 preserveAspectRatio="xMidYMid meet">
<metadata>
Created by potrace 1.16, written by Peter Selinger 2001-2019
</metadata>
<g transform="translate(0.000000,225.000000) scale(0.100000,-0.100000)"
fill="#000000" stroke="none">
<path d="M975 2239 c-229 -29 -448 -135 -621 -301 -110 -106 -172 -189 -234
-313 -157 -318 -157 -683 0 -1000 59 -119 113 -193 217 -298 383 -387 1014
-433 1452 -107 567 423 617 1234 105 1720 -248 236 -574 342 -919 299z m695
-688 c5 -11 10 -30 10 -42 0 -53 -192 -924 -207 -941 -31 -35 -63 -22 -208 87
-77 57 -145 104 -151 105 -6 0 -47 -34 -91 -75 -45 -41 -87 -75 -93 -75 -9 0
-11 30 -6 123 4 67 9 133 12 147 4 17 91 101 264 255 231 205 280 255 252 255
-5 0 -158 -94 -341 -209 l-331 -209 -143 45 c-78 25 -150 49 -159 54 -21 11
-24 42 -5 57 25 21 1123 441 1154 441 22 1 36 -5 43 -18z"/>
</g>
</svg>
